<?xml version="1.0" encoding="utf-8"?>
<!-- Generator: Adobe Illustrator 14.0.0, SVG Export Plug-In . SVG Version: 6.00 Build 43363)  -->
<!DOCTYPE svg PUBLIC "-//W3C//DTD SVG 1.1//EN" "http://www.w3.org/Graphics/SVG/1.1/DTD/svg11.dtd">
<svg version="1.1" id="レイヤー_1" xmlns="http://www.w3.org/2000/svg" xmlns:xlink="http://www.w3.org/1999/xlink" x="0px"
	 y="0px" width="374.995px" height="374.995px" viewBox="0 0 374.995 374.995" enable-background="new 0 0 374.995 374.995"
	 xml:space="preserve">
<path fill="#D5E4F5" d="M223.928,149.124v3.311h-98.613V72.317c0,0,0,0,8.531,0c2.268,0,4.394-0.395,6.483-0.971v54.324
	c0,0,14.383-0.977,21.699,6.095c0.237,0.227,0.468,0.457,0.691,0.688l0.22,0.234c0.145,0.151,0.29,0.303,0.428,0.45l0.25,0.28
	l0.358,0.405l0.254,0.3l0.318,0.379l0.247,0.309l0.286,0.362l0.245,0.319l0.259,0.346l0.24,0.326l0.231,0.325l0.236,0.342l0.204,0.3
	c3.318,4.94,4.446,9.133,8.123,10.745V72.317c0,0,5.292-5.54,15.528-5.54c10.236,0,16.719,5.54,25.25,5.54c8.529,0,8.529,0,8.529,0
	V149.124 M267.777,102.155v96.691H102.856v-96.691c0-5.957,4.805-10.832,10.68-10.832h3.058v95.771h137.446V105.13h-15.934V91.323
	h18.99C262.973,91.323,267.777,96.198,267.777,102.155"/>
<path fill="#F2B52C" d="M227.73,175.641l-0.721-5.619l14.568-24.94l6.295,3.554l-14.572,24.94L227.73,175.641 M174.62,72.317
	c-4.96-2.175-5.279-9.041-12.592-16.11c-7.316-7.072-21.699-6.095-21.699-6.095v75.559c0,0,14.383-0.977,21.699,6.095
	c7.313,7.07,7.632,13.935,12.592,16.11V72.317"/>
<path fill="#F6CD6D" d="M288.09,198.096v8.989c0,6.17-5.051,11.223-11.223,11.223H94.352c-6.172,0-11.223-5.053-11.223-11.223
	v-8.989H288.09 M242.268,283.345h12.443v-16.437h-12.443c-3.121,0-5.672,2.551-5.672,5.667v5.098
	C236.596,280.794,239.146,283.345,242.268,283.345"/>
<path fill="#40220F" d="M225.98,178.534l-1.15-8.952l15.979-27.354l9.965,5.624l-16.033,27.44L225.98,178.534 M229.189,170.467
	l0.295,2.278l2.377-0.883l13.113-22.443l-2.621-1.481L229.189,170.467"/>
<path fill="#40220F" d="M215.361,92.396c0,0.843,0,1.682,0,2.521c0,1.103,0.967,2.159,2.107,2.106
	c1.143-0.049,2.105-0.924,2.105-2.106c0-0.839,0-1.678,0-2.521c0-1.099-0.967-2.155-2.105-2.106
	C216.324,90.343,215.361,91.215,215.361,92.396"/>
<path fill="#40220F" d="M197.648,76.638c3.617,0.534,6.645,2.956,10.195,3.65c1.203,0.237,2.391,0.229,3.592,0.222
	c0.42-0.003,0.84-0.005,1.264,0.002c2.41,0.042,2.58,0.819,2.662,3.347c0.09,2.706,4.301,2.715,4.213,0
	c-0.125-3.781-1.182-6.967-5.311-7.507c-3.342-0.438-5.754-0.096-9.033-1.498c-2.061-0.885-4.223-1.949-6.461-2.278
	C196.117,72.186,194.973,76.247,197.648,76.638"/>
<path fill="#40220F" d="M215.398,70.21c-3.713,0-7.131-1.197-10.75-2.461c-4.123-1.44-8.791-3.078-14.5-3.078
	c-8.17,0-13.462,3.262-15.752,5.053c-1.297-1.024-2.261-2.716-3.488-4.901c-1.623-2.887-3.64-6.48-7.415-10.13
	c-7.898-7.636-22.683-6.728-23.309-6.685l-1.961,0.135v21.558c-1.573,0.342-2.991,0.51-4.377,0.51h-10.637v84.33h41.071
	c1.31,2.93,5.332,4.95,10.363,4.95c5.033,0,9.055-2.021,10.365-4.95h41.028V70.21H215.398 M176.726,73.249
	c1.527-1.261,6.03-4.364,13.423-4.364c4.992,0,9.119,1.444,13.111,2.839c3.791,1.326,7.711,2.699,12.139,2.699h6.424v72.593h-6.424
	c-3.713,0-7.131-1.195-10.75-2.462c-4.123-1.441-8.791-3.078-14.5-3.078c-6.086,0-10.579,1.814-13.423,3.479V73.249
	 M172.513,150.055v0.272h-32.171c1.939-0.504,3.806-1.154,5.641-1.796c3.992-1.395,8.117-2.84,13.113-2.84
	C166.504,145.69,170.99,148.787,172.513,150.055 M142.436,52.172c3.986,0.03,13.076,0.665,18.128,5.549
	c3.333,3.221,5.108,6.381,6.671,9.166c1.54,2.74,2.906,5.156,5.279,6.674v69.549c-0.516-0.791-1.03-1.706-1.605-2.729
	c-1.623-2.886-3.64-6.48-7.415-10.133c-6.158-5.951-16.506-6.71-21.057-6.735V52.172 M127.421,74.424h6.424
	c1.415,0,2.854-0.155,4.377-0.438v53.939l2.249-0.155c0.135-0.006,13.526-0.839,20.093,5.509c3.333,3.223,5.108,6.379,6.671,9.167
	l0.155,0.269c-2.32-0.724-5.079-1.238-8.293-1.238c-5.71,0-10.381,1.637-14.501,3.078c-3.621,1.267-7.037,2.462-10.75,2.462h-6.424
	V74.424 M176.414,150.327c1.113-0.994,5.723-4.637,13.735-4.637c4.992,0,9.119,1.445,13.111,2.84
	c1.832,0.645,3.701,1.292,5.641,1.796H176.414"/>
<path fill="#40220F" d="M215.361,92.396c0,0.843,0,1.682,0,2.521c0,1.103,0.967,2.159,2.107,2.106
	c1.143-0.049,2.105-0.924,2.105-2.106c0-0.839,0-1.678,0-2.521c0-1.099-0.967-2.155-2.105-2.106
	C216.324,90.343,215.361,91.215,215.361,92.396"/>
<path fill="#40220F" d="M197.648,76.638c3.902,0.573,7.125,3.275,11.035,3.788c0.574,0.075,1.307,0.018,2.059-0.041
	c1.133-0.087,2.316-0.174,3.09,0.192c1.697,0.799,1.498,4.12,1.529,5.624c0.059,2.705,4.273,2.716,4.213,0
	c-0.084-3.712-0.576-8.678-4.896-9.745c-3.064-0.753-5.746-0.013-8.846-1.319c-2.271-0.958-4.596-2.199-7.062-2.561
	C196.117,72.186,194.973,76.247,197.648,76.638"/>
<path fill="#40220F" d="M169.163,210.311c10.849,0,21.695,0,32.546,0c2.709,0,2.717-4.214,0-4.214c-10.852,0-21.698,0-32.546,0
	C166.451,206.097,166.448,210.311,169.163,210.311"/>
<polyline fill="#40220F" points="256.146,190.602 114.486,190.602 114.486,104.383 118.7,104.383 118.7,186.39 251.934,186.39 
	251.934,107.793 238.164,107.793 238.164,103.58 256.146,103.58 256.146,190.602 "/>
<path fill="#40220F" d="M277.029,229.106c-8.078,0.176-17.201,0.285-19.129,0.161l-0.139-0.081h-0.561
	c-4.869,0-8.834-3.922-8.918-8.773h28.584c7.35,0,13.328-5.978,13.328-13.328v-11.096h-20.312v-93.235
	c0-7.053-5.736-12.786-12.787-12.786h-18.932v4.213h18.932c4.732,0,8.574,3.844,8.574,8.573v93.235H104.962v-93.235
	c0-4.729,3.848-8.573,8.574-8.573h3.058v-4.213h-3.058c-7.05,0-12.787,5.733-12.787,12.786v93.235H81.021v11.096
	c0,7.351,5.981,13.328,13.331,13.328H244.07c0.082,7.173,5.934,12.985,13.129,12.987c1.6,0.174,6.002,0.218,19.875-0.083
	c4.924,0,8.93,4.005,8.93,8.929c0,4.922-4.006,8.925-8.93,8.925H94.062c-7.195,0-13.05,5.857-13.05,13.056
	c0,7.193,5.855,13.049,13.05,13.049l140.426-0.004v0.401c0,4.289,3.49,7.777,7.779,7.777h14.549v-4.273c2.826,0,5.648,0,8.469,0
	c2.713,0,2.715-4.214,0-4.214c-2.82,0-5.643,0-8.469,0v-3.673c2.826,0,5.648,0,8.469,0c2.713,0,2.715-4.214,0-4.214
	c-2.82,0-5.643,0-8.469,0v-4.274h-14.549c-4.289,0-7.779,3.489-7.779,7.773v0.484H94.167l-0.104,0.002
	c-4.872,0-8.837-3.965-8.837-8.835c0-4.874,3.966-8.84,8.814-8.84l0.086,0.002l182.95-0.002c7.246,0,13.143-5.896,13.143-13.141
	S284.32,229.106,277.029,229.106 M85.235,207.085v-6.883h200.75v6.883c0,5.025-4.092,9.117-9.117,9.117H94.352
	C89.325,216.202,85.235,212.11,85.235,207.085 M238.703,272.575c0-1.965,1.598-3.562,3.564-3.562h10.338v12.223h-10.338
	c-1.967,0-3.564-1.596-3.564-3.563V272.575"/>
<polyline fill="#40220F" points="262.5,61.779 253.227,61.779 253.227,57.565 262.5,57.565 262.5,61.779 "/>
<polyline fill="#40220F" points="246.184,61.779 236.908,61.779 236.908,57.565 246.184,57.565 246.184,61.779 "/>
<polyline fill="#40220F" points="251.812,72.469 247.598,72.469 247.598,63.193 251.812,63.193 251.812,72.469 "/>
<polyline fill="#40220F" points="251.812,56.154 247.598,56.154 247.598,46.88 251.812,46.88 251.812,56.154 "/>
<polyline fill="#40220F" points="96.145,234.583 93.166,231.604 99.726,225.043 102.704,228.023 96.145,234.583 "/>
<polyline fill="#40220F" points="84.609,246.118 81.631,243.139 88.187,236.583 91.165,239.562 84.609,246.118 "/>
<polyline fill="#40220F" points="99.726,246.118 93.166,239.562 96.145,236.583 102.704,243.139 99.726,246.118 "/>
<polyline fill="#40220F" points="88.187,234.583 81.631,228.023 84.609,225.043 91.165,231.604 88.187,234.583 "/>
<path fill="#40220F" d="M164.391,177.579c1.069-1.537,2.251-3.041,3.577-4.365c0.425-0.421,0.859-0.829,1.324-1.208
	c0.786-0.638,0.796-0.257,0.177-0.882c1.093,1.099,0.474,4.904,0.58,6.398c0.566,7.896,7.507,2.706,10.437-0.691
	c2.741-3.179,6.783-8.441,11.378-5.167c2.67,1.909,4.904,3.818,8.262,4.482c1.721,0.343,3.506,0.307,5.184-0.198
	c2.268-0.681,3.578-2.076,5.93-0.938c3.355,1.623,5.891,1.751,9.662,1.751c2.713,0,2.715-4.212,0-4.212
	c-2.373,0-4.635,0.2-6.842-0.761c-1.328-0.576-2.348-1.461-3.836-1.666c-1.838-0.252-3.205,0.504-4.818,1.226
	c-2.99,1.339-5.977,0.684-8.648-1.124c-2.855-1.935-4.643-4.071-8.425-3.771c-4.192,0.333-7.118,3.05-9.718,6.089
	c-1.189,1.385-2.702,3.936-4.414,4.667c0.102,1.026,0.115,0.991,0.042-0.115c-0.006-0.323-0.014-0.642-0.02-0.965
	c-0.033-1.099-0.035-2.195-0.158-3.288c-0.257-2.333-0.869-5.44-3.742-5.62c-4.005-0.257-7.59,5.39-9.568,8.231
	C159.201,177.685,162.854,179.791,164.391,177.579"/>
<path fill="#F2B52C" d="M227.734,41.021c0-13.033-10.715-23.556-23.814-23.248c-12.67,0.301-22.859,10.892-22.691,23.565
	c0.091,6.7,3.019,12.713,7.628,16.897c3.711,3.369,5.912,8.084,5.912,13.096v5.302h19.426V71.48c0-5.085,2.221-9.872,5.973-13.303
	C224.82,53.926,227.734,47.816,227.734,41.021"/>
<path fill="#7F4F21" d="M227.734,41.021h0.857c0-13.32-10.793-24.114-24.111-24.114c-0.191,0-0.389,0.004-0.582,0.008
	c-6.518,0.154-12.406,2.933-16.652,7.296c-4.251,4.358-6.876,10.312-6.876,16.812v0.331v-0.003
	c0.095,6.945,3.13,13.186,7.913,17.521c3.539,3.216,5.625,7.701,5.625,12.461v5.302c0,0.227,0.092,0.448,0.252,0.609
	c0.162,0.158,0.385,0.249,0.609,0.249h19.426c0.225,0,0.447-0.091,0.605-0.249c0.162-0.161,0.25-0.382,0.25-0.609V71.48
	c0-4.833,2.115-9.392,5.695-12.668c4.818-4.404,7.846-10.748,7.846-17.791h-1.717c0,6.545-2.805,12.426-7.289,16.522
	c-3.916,3.584-6.25,8.599-6.25,13.937v4.296h-17.707v-4.443c0-5.268-2.311-10.211-6.191-13.733
	c-4.445-4.034-7.261-9.82-7.349-16.271v-0.003v-0.302c0-6.03,2.436-11.556,6.389-15.613c3.953-4.055,9.414-6.634,15.458-6.778
	c0.184-0.003,0.367-0.006,0.545-0.006c6.188,0.003,11.781,2.505,15.834,6.559c4.057,4.055,6.561,9.647,6.561,15.836H227.734
	L227.734,41.021"/>
<path fill="#F2B52C" d="M227.734,41.021c0-13.033-10.715-23.556-23.814-23.248c-12.67,0.301-22.859,10.892-22.691,23.565
	c0.091,6.7,3.019,12.713,7.628,16.897c3.711,3.369,5.912,8.084,5.912,13.096v5.302h19.426V71.48c0-5.085,2.221-9.872,5.973-13.303
	C224.82,53.926,227.734,47.816,227.734,41.021"/>
<path fill="#7F4F21" d="M227.734,41.021h0.857c0-13.32-10.793-24.114-24.111-24.114c-0.191,0-0.389,0.004-0.582,0.008
	c-6.518,0.154-12.406,2.933-16.652,7.296c-4.251,4.358-6.876,10.312-6.876,16.812v0.331v-0.003
	c0.095,6.945,3.13,13.186,7.913,17.521c3.539,3.216,5.625,7.701,5.625,12.461v5.302c0,0.227,0.092,0.448,0.252,0.609
	c0.162,0.158,0.385,0.249,0.609,0.249h19.426c0.225,0,0.447-0.091,0.605-0.249c0.162-0.161,0.25-0.382,0.25-0.609V71.48
	c0-4.833,2.115-9.392,5.695-12.668c4.818-4.404,7.846-10.748,7.846-17.791h-1.717c0,6.545-2.805,12.426-7.289,16.522
	c-3.916,3.584-6.25,8.599-6.25,13.937v4.296h-17.707v-4.443c0-5.268-2.311-10.211-6.191-13.733
	c-4.445-4.034-7.261-9.82-7.349-16.271v-0.003v-0.302c0-6.03,2.436-11.556,6.389-15.613c3.953-4.055,9.414-6.634,15.458-6.778
	c0.184-0.003,0.367-0.006,0.545-0.006c6.188,0.003,11.781,2.505,15.834,6.559c4.057,4.055,6.561,9.647,6.561,15.836H227.734
	L227.734,41.021"/>
<path fill="#F6CD6D" d="M207.562,75.776h-11.934v-4.443c0-5.268-2.311-10.211-6.191-13.733c-4.445-4.034-7.261-9.82-7.349-16.271
	v-0.003v-0.302c0-6.03,2.436-11.556,6.389-15.613c3.953-4.055,9.414-6.634,15.458-6.778c0.184-0.003,0.365-0.006,0.545-0.006
	c0.293,0,0.588,0.006,0.883,0.017c-2.076,8.946-3.598,18.026-3.857,27.2C201.213,56.152,202.736,66.707,207.562,75.776"/>
<path fill="#466B96" d="M208.035,76.635H194.77v-5.302c0-5.012-2.201-9.728-5.912-13.096c-4.61-4.184-7.538-10.197-7.628-16.897
	c-0.168-12.674,10.021-23.264,22.691-23.565c0.146-0.003,0.295-0.003,0.441-0.003c0.404,0,0.803,0.01,1.199,0.028
	c-0.064,0.279-0.135,0.563-0.197,0.844c-0.295-0.01-0.59-0.017-0.883-0.017c-0.18,0-0.361,0.002-0.545,0.006
	c-6.045,0.144-11.506,2.723-15.458,6.778c-3.953,4.057-6.389,9.583-6.389,15.613v0.302v0.003c0.088,6.451,2.904,12.237,7.349,16.271
	c3.881,3.521,6.191,8.465,6.191,13.733v4.443h11.934C207.717,76.063,207.873,76.351,208.035,76.635"/>
<path fill="#7F4F21" d="M201.619,76.47l-5.447-27.624c-0.078-0.386-0.453-0.638-0.838-0.56c-0.387,0.076-0.637,0.451-0.561,0.836
	l5.453,27.624c0.074,0.386,0.447,0.638,0.834,0.561C201.447,77.23,201.697,76.854,201.619,76.47"/>
<path fill="#7F4F21" d="M209,76.746l5.449-27.624c0.078-0.386-0.174-0.76-0.559-0.836c-0.389-0.078-0.762,0.174-0.836,0.56
	l-5.453,27.624c-0.076,0.385,0.176,0.761,0.561,0.837C208.549,77.384,208.924,77.132,209,76.746"/>
<polyline fill="#FCFDFB" points="214.088,86.216 194.814,86.216 194.738,76.635 214.166,76.635 214.088,86.216 "/>
<path fill="#7F4F21" d="M214.088,86.216v-0.859h-18.42l-0.062-7.864h17.697l-0.072,8.715L214.088,86.216v-0.859V86.216l0.859,0.007
	l0.078-9.581c0.004-0.229-0.088-0.45-0.25-0.614c-0.16-0.16-0.381-0.251-0.609-0.251h-19.428c-0.23,0-0.447,0.092-0.609,0.251
	c-0.16,0.165-0.25,0.386-0.25,0.614l0.078,9.581c0.004,0.474,0.389,0.851,0.857,0.851h19.273c0.475,0,0.857-0.377,0.859-0.851
	L214.088,86.216"/>
<path fill="#FCFDFB" d="M194.883,86.253c0.512,2.373,2.609,4.069,5.035,4.069h9.066c2.432,0,4.527-1.696,5.033-4.069H194.883"/>
<path fill="#7F4F21" d="M194.883,86.253l-0.834,0.179c0.592,2.769,3.035,4.749,5.869,4.749h9.066c2.838,0,5.283-1.98,5.875-4.749
	c0.051-0.252-0.01-0.515-0.172-0.718c-0.164-0.204-0.406-0.319-0.67-0.319h-19.135c-0.256,0-0.502,0.115-0.662,0.319
	c-0.166,0.204-0.23,0.466-0.172,0.718L194.883,86.253v0.859h19.135v-0.859l-0.836-0.178c-0.424,1.976-2.172,3.389-4.197,3.389
	h-9.066c-2.023,0-3.771-1.413-4.191-3.389L194.883,86.253v0.859V86.253"/>
<path fill="#7F4F21" d="M196.998,54.474l3.82-4.332l3.189,4.66c0.125,0.186,0.328,0.298,0.555,0.309
	c0.219,0.011,0.432-0.08,0.576-0.251l3.975-4.717l3.07,4.275c0.23,0.318,0.676,0.393,0.994,0.165
	c0.322-0.231,0.393-0.676,0.164-0.994l-3.605-5.019c-0.129-0.179-0.334-0.288-0.555-0.299c-0.215-0.006-0.43,0.088-0.57,0.256
	l-3.959,4.7l-3.176-4.644c-0.123-0.182-0.324-0.297-0.543-0.312c-0.221-0.01-0.434,0.078-0.578,0.243l-4.428,5.018
	c-0.26,0.294-0.232,0.747,0.062,1.005C196.287,54.795,196.736,54.768,196.998,54.474"/>
<path fill="#7F4F21" d="M205.791,12.202V2.66c0-0.48-0.389-0.87-0.873-0.87c-0.479,0-0.869,0.389-0.869,0.87v9.542
	c0,0.48,0.391,0.869,0.869,0.869C205.402,13.071,205.791,12.683,205.791,12.202"/>
<path fill="#7F4F21" d="M217.537,14.388l5.828-7.553c0.293-0.38,0.219-0.926-0.158-1.22c-0.379-0.294-0.924-0.222-1.219,0.158
	l-5.828,7.554c-0.293,0.382-0.223,0.928,0.158,1.224C216.699,14.84,217.246,14.771,217.537,14.388L217.537,14.388"/>
<path fill="#7F4F21" d="M194.738,13.327l-5.824-7.554c-0.294-0.38-0.841-0.453-1.222-0.158c-0.379,0.294-0.449,0.84-0.154,1.22
	l5.824,7.553c0.293,0.383,0.842,0.453,1.221,0.163C194.963,14.255,195.033,13.708,194.738,13.327"/>
<path fill="#7F4F21" d="M226.004,23.041l7.951-4.24c0.424-0.228,0.58-0.753,0.355-1.178c-0.223-0.424-0.754-0.585-1.178-0.357
	l-7.949,4.24c-0.424,0.228-0.582,0.753-0.359,1.178C225.051,23.108,225.578,23.264,226.004,23.041"/>
<path fill="#7F4F21" d="M185.714,19.915l-7.951-4.24c-0.419-0.225-0.95-0.068-1.173,0.357c-0.228,0.424-0.066,0.949,0.357,1.177
	l7.951,4.24c0.424,0.229,0.95,0.067,1.175-0.356C186.3,20.668,186.138,20.143,185.714,19.915"/>
<path fill="#7F4F21" d="M229.408,33.739l9.006-1.062c0.479-0.055,0.82-0.486,0.766-0.963c-0.057-0.477-0.488-0.82-0.965-0.764
	l-9.012,1.062c-0.477,0.056-0.818,0.487-0.766,0.963C228.494,33.452,228.93,33.795,229.408,33.739"/>
<path fill="#7F4F21" d="M179.046,30.95l-9.01-1.059c-0.477-0.057-0.912,0.283-0.967,0.76c-0.056,0.481,0.289,0.911,0.764,0.967
	l9.01,1.058c0.477,0.057,0.912-0.284,0.968-0.76C179.866,31.441,179.527,31.006,179.046,30.95"/>
<path fill="#7F4F21" d="M229.834,44.346h10.07c0.482,0,0.873-0.388,0.873-0.869s-0.391-0.87-0.873-0.87h-10.07
	c-0.48,0-0.869,0.389-0.869,0.87S229.354,44.346,229.834,44.346"/>
<path fill="#7F4F21" d="M167.815,44.346h10.071c0.48,0,0.869-0.388,0.869-0.869s-0.389-0.87-0.869-0.87h-10.071
	c-0.48,0-0.873,0.389-0.873,0.87S167.335,44.346,167.815,44.346"/>
<path fill="#7F4F21" d="M195.414,82.382h11.916c0.482,0,0.873-0.393,0.873-0.876c0-0.483-0.391-0.876-0.873-0.876h-11.916
	c-0.482,0-0.877,0.393-0.877,0.876C194.537,81.989,194.932,82.382,195.414,82.382"/>
<path fill="#40220F" d="M32.001,119.98l0.013,2.899c0,0.67,0.592,1.314,1.288,1.29c0.696-0.026,1.289-0.568,1.289-1.29l-0.026-5.696
	c0.709-0.025,1.418-0.052,2.127-0.064c0.889-0.025,1.778-0.039,2.667-0.039c0.67,0,1.314-0.593,1.289-1.289
	c-0.026-0.695-0.567-1.289-1.289-1.289c-1.598,0-3.196,0.052-4.807,0.104l-0.013-2.102l-0.013-2.887c0-0.67-0.592-1.314-1.289-1.289
	c-0.696,0.027-1.289,0.567-1.289,1.289c0.013,1.702,0.013,3.39,0.025,5.091c-0.67,0.025-1.353,0.051-2.023,0.064
	c-0.89,0.025-1.778,0.04-2.655,0.04c-0.67,0-1.313,0.592-1.289,1.288c0.026,0.696,0.567,1.289,1.289,1.289
	c1.559,0,3.132-0.052,4.69-0.103C31.987,118.176,32.001,119.077,32.001,119.98 M56.758,169.199c-0.902,0-1.791,0-2.693,0.025
	c0-0.915-0.014-1.844-0.014-2.758c0-0.49-0.425-0.966-0.94-0.94c-0.503,0.025-0.941,0.411-0.941,0.94c0,0.94,0.013,1.869,0.013,2.81
	c-0.876,0.024-1.74,0.064-2.616,0.103c-0.49,0.026-0.967,0.412-0.94,0.941c0.026,0.49,0.413,0.966,0.94,0.94
	c0.876-0.051,1.753-0.078,2.629-0.103c0,1.071,0.012,2.14,0.012,3.222c0,0.489,0.427,0.966,0.941,0.941
	c0.502-0.026,0.941-0.413,0.941-0.941c0-1.083-0.014-2.179-0.014-3.261c0.891-0.012,1.792-0.025,2.681-0.025
	c0.49,0,0.966-0.438,0.94-0.94C57.673,169.624,57.286,169.199,56.758,169.199 M82.212,124.852c1.16-0.066,2.333-0.104,3.493-0.143
	c0,0.684,0,1.367,0.012,2.062c0,0.723,0.014,1.457,0.014,2.178c0,0.502,0.438,0.992,0.966,0.966
	c0.515-0.026,0.966-0.424,0.966-0.966c0-1.431-0.013-2.861-0.013-4.292c0.528-0.013,1.044-0.013,1.573-0.026
	c0.657,0,1.328-0.013,1.985,0c0.502,0,0.992-0.451,0.966-0.966c-0.026-0.529-0.426-0.967-0.966-0.967c-1.186,0-2.384,0-3.571,0.026
	c0-0.49,0-0.993-0.013-1.483c0-0.721-0.013-1.456-0.013-2.178c0-0.502-0.439-0.993-0.966-0.966
	c-0.516,0.024-0.966,0.425-0.966,0.966c0,1.237,0.012,2.475,0.012,3.711c-0.502,0.013-0.992,0.026-1.495,0.052
	c-0.657,0.025-1.328,0.051-1.985,0.09c-0.502,0.025-0.993,0.425-0.967,0.967C81.271,124.375,81.671,124.878,82.212,124.852
	 M44.09,149.828c-1.715,0-3.441,0.014-5.155,0.039c0-0.644,0-1.276-0.014-1.92c0-0.928-0.012-1.855-0.012-2.771
	c0-0.502-0.438-0.992-0.966-0.966c-0.515,0.026-0.967,0.425-0.967,0.966c0.012,1.585,0.012,3.158,0.025,4.743
	c-0.773,0.025-1.545,0.052-2.306,0.077c-0.89,0.039-1.778,0.077-2.655,0.129c-0.502,0.026-0.993,0.426-0.967,0.967
	c0.026,0.502,0.425,0.992,0.967,0.966c1.663-0.09,3.325-0.154,4.975-0.206c0,0.941,0.013,1.882,0.013,2.811
	c0,0.928,0.013,1.855,0.013,2.77c0,0.502,0.438,0.992,0.966,0.966c0.516-0.026,0.968-0.425,0.968-0.966
	c-0.014-1.881-0.014-3.764-0.025-5.645c0.824-0.013,1.648-0.026,2.486-0.039c0.89-0.013,1.778-0.013,2.668-0.013
	c0.503,0,0.993-0.451,0.967-0.967C45.03,150.266,44.631,149.828,44.09,149.828 M95.435,167.807c-2.269-0.09-4.536-0.167-6.804-0.206
	l-0.4-0.013c0-1.391-0.012-2.771-0.012-4.162c0-1.405-0.014-2.81-0.014-4.214c0-0.413-0.18-0.851-0.477-1.136
	c-0.283-0.283-0.735-0.489-1.134-0.476c-0.413,0.013-0.85,0.154-1.133,0.476c-0.284,0.311-0.478,0.709-0.478,1.136
	c0.014,2.487,0.026,4.975,0.039,7.474c0,0.283,0,0.581,0,0.864c-1.057-0.013-2.126-0.013-3.183-0.013
	c-1.289,0-2.564,0.013-3.853,0.039c-0.413,0-0.838,0.179-1.135,0.476c-0.283,0.284-0.489,0.735-0.477,1.134
	c0.013,0.412,0.155,0.851,0.477,1.135c0.31,0.284,0.709,0.477,1.135,0.477c2.268-0.039,4.536-0.039,6.804-0.026h0.245
	c0,1.134,0.013,2.268,0.013,3.415c0,1.406,0.013,2.81,0.013,4.214c0,0.413,0.18,0.851,0.477,1.135
	c0.284,0.283,0.734,0.49,1.134,0.477c0.413-0.013,0.851-0.154,1.134-0.477c0.283-0.31,0.477-0.709,0.477-1.135
	c-0.013-2.487-0.026-4.974-0.039-7.475v-0.115c1.108,0.025,2.23,0.051,3.338,0.077c1.288,0.039,2.564,0.078,3.853,0.142
	c0.399,0.013,0.864-0.193,1.134-0.477c0.283-0.283,0.491-0.735,0.478-1.134C97.007,168.515,96.337,167.846,95.435,167.807
	 M76.708,141.993c-0.232,0.256-0.515,0.425-0.825,0.527c-0.309,0.169-0.644,0.232-0.991,0.22c-1.83-0.064-3.673-0.129-5.503-0.181
	c-1.444-0.04-2.888-0.064-4.344-0.091c0,0.387,0,0.761,0,1.148c0.013,3.531,0.026,7.062,0.051,10.581
	c0,0.696-0.296,1.314-0.76,1.817c-0.465,0.503-1.16,0.721-1.818,0.76c-0.359,0.013-0.683-0.064-0.992-0.219
	c-0.322-0.104-0.592-0.283-0.824-0.528c-0.465-0.464-0.748-1.16-0.76-1.818c-0.013-1.985-0.013-3.969-0.026-5.954
	c-0.013-1.946-0.013-3.892-0.025-5.838c-0.168,0-0.335,0-0.502,0c-3.3-0.013-6.612,0-9.913,0.064
	c-0.695,0.013-1.326-0.297-1.817-0.76c-0.501-0.464-0.721-1.161-0.76-1.818c-0.013-0.36,0.064-0.683,0.219-0.992
	c0.103-0.322,0.283-0.593,0.528-0.825c0.477-0.477,1.159-0.748,1.817-0.76c1.83-0.039,3.673-0.052,5.504-0.064
	c1.623-0.012,3.259-0.012,4.884,0c-0.013-3.376-0.026-6.766-0.052-10.143c0-0.696,0.296-1.314,0.761-1.817
	c0.464-0.502,1.16-0.721,1.817-0.76c0.361-0.013,0.683,0.064,0.993,0.218c0.322,0.104,0.593,0.285,0.825,0.53
	c0.463,0.464,0.748,1.159,0.76,1.816c0.014,1.984,0.014,3.97,0.026,5.955c0,1.417,0.012,2.836,0.012,4.253
	c3.286,0.051,6.573,0.142,9.873,0.271c0.709,0.025,1.302,0.283,1.817,0.76c0.503,0.464,0.722,1.16,0.761,1.817
	c0.013,0.361-0.064,0.683-0.218,0.992C77.134,141.477,76.954,141.748,76.708,141.993"/>
<path fill="#9E94A3" d="M53.825,299.28c-2.108,0-3.446,0.447-4.009,1.344c-1.892,2.39-5.66,7.32-11.302,14.789l-11.303-14.839
	l-0.298-0.3c-0.2-0.229-0.623-0.456-1.271-0.671c-0.646-0.216-1.418-0.323-2.315-0.323c-2.091,0-3.385,0.433-3.883,1.294
	c-0.266,0.499-0.424,0.938-0.474,1.321c-0.049,0.381-0.074,0.953-0.074,1.717v27.635c0,0.795,0.025,1.394,0.074,1.791
	s0.208,0.83,0.474,1.294c0.498,0.896,1.759,1.344,3.784,1.344c2.09,0,3.386-0.447,3.883-1.344c0.266-0.464,0.423-0.886,0.473-1.267
	c0.049-0.384,0.074-0.955,0.074-1.719v-16.78c0.166,0.198,1.228,1.652,3.187,4.356c1.959,2.706,3.27,4.475,3.934,5.303l0.398,0.549
	c0.265,0.331,0.705,0.673,1.32,1.019c0.613,0.348,1.294,0.524,2.042,0.524c0.747,0,1.444-0.191,2.091-0.574
	c0.647-0.379,1.054-0.679,1.22-0.895c0.167-0.215,0.465-0.606,0.896-1.172c0.431-0.562,1.444-1.967,3.038-4.207
	c1.593-2.239,2.804-3.875,3.634-4.903v16.681c0,1.162,0.083,2.023,0.249,2.586c0.166,0.434,0.398,0.767,0.697,0.996
	c0.298,0.234,0.729,0.433,1.294,0.599c0.564,0.168,1.327,0.248,2.291,0.248c0.962,0,1.76-0.099,2.39-0.298
	c1.261-0.397,1.892-1.743,1.892-4.031v-27.635c0-0.763-0.025-1.344-0.075-1.744c-0.049-0.397-0.207-0.845-0.472-1.344
	C57.218,299.728,55.932,299.28,53.825,299.28"/>
<path fill="#9E94A3" d="M66.635,299.23c-2.125,0-3.419,0.447-3.883,1.344c-0.266,0.499-0.423,0.938-0.473,1.321
	c-0.05,0.381-0.075,0.953-0.075,1.717v27.683c0,1.163,0.1,2.009,0.299,2.538c0.398,1.264,1.759,1.895,4.083,1.895
	c2.124,0,3.419-0.447,3.883-1.346c0.265-0.497,0.423-0.928,0.474-1.294c0.049-0.364,0.074-0.946,0.074-1.741v-27.685
	c0-1.162-0.083-2.023-0.249-2.589C70.336,299.846,68.958,299.23,66.635,299.23"/>
<path fill="#9E94A3" d="M87.047,298.632c-3.751,0-6.714,1.088-8.887,3.264c-2.175,2.172-3.262,4.722-3.262,7.643
	c0,2.125,0.423,3.94,1.27,5.45c0.847,1.512,1.9,2.615,3.162,3.312c1.261,0.697,2.622,1.304,4.083,1.817
	c1.46,0.516,2.821,0.889,4.083,1.12c1.261,0.232,2.315,0.607,3.161,1.12c0.848,0.516,1.271,1.156,1.271,1.918
	c0,2.524-1.544,3.785-4.631,3.785c-0.73,0-1.527-0.257-2.39-0.774c-0.863-0.512-1.527-1.052-1.991-1.617
	c-1.661-1.659-2.955-2.489-3.885-2.489c-0.929,0-1.81,0.397-2.638,1.195c-1.428,1.396-2.142,2.514-2.142,3.36
	s0.431,1.802,1.295,2.863l0.448,0.547c0.697,0.996,1.924,2.025,3.684,3.088c0.863,0.564,1.992,1.037,3.386,1.42
	c1.395,0.381,2.871,0.571,4.431,0.571c3.053,0,5.925-0.88,8.614-2.638c1.394-0.896,2.521-2.168,3.386-3.812
	c0.861-1.64,1.293-3.54,1.293-5.698c0-2.157-0.422-3.976-1.27-5.454c-0.847-1.474-1.901-2.514-3.161-3.109
	c-1.263-0.599-2.64-1.104-4.133-1.521c-1.495-0.414-2.873-0.721-4.133-0.919c-1.262-0.199-2.316-0.58-3.163-1.146
	c-0.846-0.565-1.27-1.305-1.27-2.216c0-0.913,0.356-1.625,1.07-2.143c0.713-0.514,1.61-0.771,2.689-0.771
	c1.079,0,1.967,0.216,2.664,0.646c0.232,0.165,0.488,0.383,0.771,0.647c0.282,0.268,0.474,0.431,0.573,0.499
	c1.029,0.665,1.892,0.994,2.589,0.994c1.195,0,2.357-0.828,3.485-2.489c0.797-1.161,1.194-2.074,1.194-2.737
	c0-0.662-0.514-1.479-1.542-2.438l-1.245-0.946c-0.632-0.53-1.768-1.055-3.411-1.57C90.855,298.892,89.039,298.632,87.047,298.632"
	/>
<path fill="#9E94A3" d="M131.677,299.181c-0.947,0-1.734,0.1-2.365,0.299c-0.631,0.198-1.113,0.565-1.444,1.095
	c-0.333,0.532-0.499,1.445-0.499,2.74v15.235c0,2.356-0.598,4.432-1.792,6.225c-1.195,1.791-3.005,2.688-5.428,2.688
	c-1.361,0-2.54-0.281-3.536-0.847c-0.996-0.563-1.742-1.311-2.24-2.24c-0.997-1.827-1.494-3.75-1.494-5.777v-14.936
	c0-1.327-0.199-2.371-0.598-3.138c-0.232-0.496-0.665-0.847-1.294-1.045c-0.631-0.199-1.478-0.299-2.54-0.299
	c-1.063,0-1.909,0.1-2.54,0.299c-0.631,0.198-1.079,0.549-1.343,1.045c-0.267,0.499-0.424,0.94-0.474,1.321s-0.074,0.97-0.074,1.767
	v14.985c0,4.449,1.344,8.432,4.033,11.951c1.293,1.726,2.978,3.121,5.053,4.181c2.074,1.062,4.381,1.595,6.92,1.595
	c2.54,0,4.854-0.521,6.946-1.567c2.091-1.048,3.8-2.414,5.129-4.108c2.721-3.584,4.082-7.568,4.082-11.949v-15.037
	c0-1.162-0.099-2.023-0.297-2.589c-0.134-0.466-0.35-0.813-0.647-1.045c-0.3-0.232-0.731-0.431-1.294-0.599
	C133.378,299.264,132.623,299.181,131.677,299.181"/>
<path fill="#9E94A3" d="M175.086,299.28c-2.108,0-3.444,0.447-4.008,1.344c-1.892,2.39-5.659,7.32-11.301,14.789l-11.303-14.839
	l-0.299-0.3c-0.199-0.229-0.622-0.456-1.27-0.671c-0.647-0.216-1.419-0.323-2.316-0.323c-2.09,0-3.385,0.433-3.883,1.294
	c-0.266,0.499-0.423,0.938-0.473,1.321c-0.05,0.381-0.075,0.953-0.075,1.717v27.635c0,0.795,0.025,1.394,0.075,1.791
	c0.05,0.397,0.207,0.83,0.473,1.294c0.498,0.896,1.759,1.344,3.785,1.344c2.091,0,3.385-0.447,3.883-1.344
	c0.265-0.464,0.423-0.886,0.472-1.267c0.05-0.384,0.074-0.955,0.074-1.719v-16.78c0.167,0.198,1.229,1.652,3.188,4.356
	c1.958,2.706,3.269,4.475,3.934,5.303l0.398,0.549c0.265,0.331,0.705,0.673,1.319,1.019c0.614,0.348,1.295,0.524,2.042,0.524
	s1.444-0.191,2.092-0.574c0.646-0.379,1.053-0.679,1.22-0.895c0.166-0.215,0.464-0.606,0.896-1.172
	c0.431-0.562,1.444-1.967,3.038-4.207c1.593-2.239,2.805-3.875,3.634-4.903v16.681c0,1.162,0.083,2.023,0.249,2.586
	c0.166,0.434,0.398,0.767,0.697,0.996c0.299,0.234,0.729,0.433,1.295,0.599c0.564,0.168,1.326,0.248,2.29,0.248
	c0.962,0,1.759-0.099,2.39-0.298c1.261-0.397,1.892-1.743,1.892-4.031v-27.635c0-0.763-0.024-1.344-0.074-1.744
	c-0.05-0.397-0.208-0.845-0.474-1.344C178.479,299.728,177.194,299.28,175.086,299.28"/>
<path fill="#9E94A3" d="M187.898,299.23c-2.125,0-3.42,0.447-3.884,1.344c-0.267,0.499-0.424,0.938-0.473,1.321
	c-0.05,0.381-0.075,0.953-0.075,1.717v27.683c0,1.163,0.099,2.009,0.299,2.538c0.398,1.264,1.759,1.895,4.083,1.895
	c2.123,0,3.417-0.447,3.882-1.346c0.266-0.497,0.426-0.928,0.475-1.294c0.049-0.364,0.074-0.946,0.074-1.741v-27.685
	c0-1.162-0.084-2.023-0.25-2.589C191.598,299.846,190.221,299.23,187.898,299.23"/>
<path fill="#9E94A3" d="M222.596,320.59l3.285-6.821l3.338,6.821H222.596 M225.932,299.23c-0.832,0-1.617,0.232-2.365,0.698
	c-0.748,0.464-1.303,1.078-1.67,1.841l-13.441,27.831c-0.564,1.133-0.848,1.978-0.848,2.541c0,1.197,0.963,2.257,2.889,3.187
	c1.129,0.563,2.018,0.847,2.666,0.847c0.645,0,1.176-0.159,1.592-0.474c0.416-0.312,0.715-0.621,0.896-0.92
	c0.182-0.3,0.439-0.78,0.77-1.442l2.59-5.378h13.793l2.59,5.378c0.33,0.662,0.588,1.161,0.77,1.49
	c0.184,0.336,0.482,0.65,0.896,0.946c0.416,0.301,0.945,0.449,1.592,0.449c0.648,0,1.537-0.283,2.664-0.847
	c1.928-0.961,2.891-2.039,2.891-3.236c0-0.563-0.285-1.408-0.848-2.541l-13.443-27.779
	C229.049,300.094,227.725,299.23,225.932,299.23"/>
<path fill="#9E94A3" d="M269.738,298.632c-0.863,0-1.875,0.684-3.039,2.044c-2.787,3.251-6.439,7.417-10.953,12.497v-9.511
	c0-1.162-0.082-2.023-0.248-2.589c-0.432-1.228-1.809-1.843-4.133-1.843c-2.125,0-3.42,0.447-3.885,1.344
	c-0.266,0.499-0.422,0.938-0.471,1.321c-0.051,0.381-0.076,0.953-0.076,1.717v27.683c0,1.163,0.1,2.009,0.301,2.538
	c0.396,1.264,1.758,1.895,4.08,1.895c2.127,0,3.42-0.447,3.883-1.346c0.268-0.497,0.424-0.928,0.475-1.294
	c0.051-0.364,0.074-0.946,0.074-1.741v-9.709l10.953,12.496c1.197,1.394,2.219,2.091,3.064,2.091c0.844,0,1.934-0.571,3.262-1.719
	c1.326-1.145,1.99-2.139,1.99-2.985s-0.547-1.885-1.643-3.112c-2.123-2.456-5.727-6.127-10.805-11.003l1.99-1.893
	c4.051-3.885,7.039-6.939,8.965-9.163c0.994-1.162,1.492-2.166,1.492-3.013c0-0.845-0.664-1.841-1.99-2.986
	C271.697,299.206,270.602,298.632,269.738,298.632"/>
<path fill="#9E94A3" d="M283.174,299.23c-2.125,0-3.418,0.447-3.885,1.344c-0.264,0.499-0.422,0.938-0.473,1.321
	c-0.047,0.381-0.076,0.953-0.076,1.717v27.683c0,1.163,0.1,2.009,0.301,2.538c0.398,1.264,1.76,1.895,4.084,1.895
	c2.123,0,3.42-0.447,3.881-1.346c0.268-0.497,0.426-0.928,0.475-1.294c0.051-0.364,0.074-0.946,0.074-1.741v-27.685
	c0-1.162-0.082-2.023-0.248-2.589C286.875,299.846,285.498,299.23,283.174,299.23"/>
<path fill="#9E94A3" d="M300.35,316.858v-8.815h6.273c1.027,0,2.023,0.373,2.986,1.121c0.963,0.747,1.443,1.851,1.443,3.312
	c0,1.46-0.48,2.554-1.443,3.286c-0.963,0.729-1.924,1.096-2.889,1.096H300.35 M306.721,299.23h-10.754
	c-2.125,0-3.418,0.447-3.883,1.344c-0.266,0.499-0.424,0.938-0.475,1.321c-0.049,0.381-0.074,0.953-0.074,1.717v27.635
	c0,1.162,0.1,2.023,0.299,2.586c0.398,1.23,1.76,1.843,4.082,1.843c2.125,0,3.42-0.447,3.885-1.344
	c0.266-0.499,0.424-0.938,0.475-1.318c0.047-0.381,0.074-0.955,0.074-1.719v-5.626h6.273l1.543-0.1
	c2.256,5.378,3.553,8.382,3.883,9.012c0.201,0.333,0.508,0.656,0.922,0.971c0.414,0.315,0.945,0.475,1.592,0.475
	c0.648,0,1.502-0.234,2.564-0.698c2.061-0.863,3.09-1.924,3.09-3.187c0-0.532-0.25-1.394-0.748-2.588
	c-1.527-3.452-2.656-6.057-3.387-7.819c2.49-2.423,3.734-5.508,3.734-9.258c0-2.159-0.432-4.116-1.295-5.879
	c-0.861-1.758-1.957-3.151-3.285-4.181C312.482,300.293,309.643,299.23,306.721,299.23"/>
<path fill="#9E94A3" d="M336.689,320.59l3.285-6.821l3.336,6.821H336.689 M340.023,299.23c-0.828,0-1.617,0.232-2.365,0.698
	c-0.746,0.464-1.301,1.078-1.666,1.841l-13.445,27.831c-0.562,1.133-0.846,1.978-0.846,2.541c0,1.197,0.963,2.257,2.889,3.187
	c1.127,0.563,2.016,0.847,2.664,0.847s1.178-0.159,1.594-0.474c0.414-0.312,0.713-0.621,0.895-0.92
	c0.184-0.3,0.439-0.78,0.773-1.442l2.588-5.378h13.793l2.59,5.378c0.33,0.662,0.586,1.161,0.771,1.49
	c0.182,0.336,0.477,0.65,0.895,0.946c0.416,0.301,0.947,0.449,1.594,0.449c0.648,0,1.537-0.283,2.664-0.847
	c1.926-0.961,2.889-2.039,2.889-3.236c0-0.563-0.283-1.408-0.846-2.541l-13.445-27.779
	C343.145,300.094,341.818,299.23,340.023,299.23"/>
<path fill="#40220F" d="M51.624,297.079c-2.109,0-3.444,0.447-4.009,1.344c-1.892,2.392-5.659,7.32-11.302,14.789l-11.302-14.836
	l-0.298-0.301c-0.2-0.231-0.624-0.455-1.27-0.673c-0.647-0.216-1.419-0.323-2.316-0.323c-2.091,0-3.385,0.433-3.883,1.297
	c-0.267,0.496-0.423,0.938-0.473,1.318c-0.05,0.381-0.075,0.955-0.075,1.717v27.635c0,0.795,0.025,1.394,0.075,1.791
	c0.05,0.399,0.207,0.83,0.473,1.294c0.498,0.897,1.759,1.345,3.784,1.345c2.091,0,3.385-0.447,3.883-1.345
	c0.266-0.464,0.424-0.886,0.474-1.269c0.05-0.381,0.075-0.953,0.075-1.717v-16.78c0.164,0.198,1.226,1.652,3.186,4.356
	c1.958,2.706,3.269,4.473,3.934,5.303l0.398,0.549c0.266,0.331,0.704,0.673,1.319,1.021c0.614,0.348,1.294,0.52,2.042,0.52
	s1.443-0.188,2.091-0.569c0.647-0.381,1.053-0.681,1.219-0.896c0.166-0.217,0.465-0.604,0.896-1.17s1.444-1.967,3.037-4.209
	c1.593-2.238,2.805-3.875,3.635-4.903v16.681c0,1.162,0.082,2.025,0.249,2.589c0.166,0.433,0.399,0.764,0.698,0.993
	c0.298,0.234,0.729,0.436,1.293,0.599c0.565,0.168,1.329,0.249,2.291,0.249c0.963,0,1.759-0.098,2.39-0.299
	c1.261-0.397,1.893-1.741,1.893-4.031v-27.635c0-0.763-0.025-1.342-0.074-1.741c-0.05-0.4-0.208-0.848-0.474-1.347
	C55.017,297.526,53.731,297.079,51.624,297.079z"/>
<path fill="#40220F" d="M60.003,329.096c0,1.161,0.101,2.009,0.299,2.539c0.398,1.261,1.759,1.893,4.083,1.893
	c2.123,0,3.418-0.45,3.883-1.347c0.266-0.497,0.423-0.928,0.473-1.292c0.05-0.366,0.075-0.948,0.075-1.743v-27.685
	c0-1.162-0.083-2.023-0.249-2.589c-0.432-1.228-1.81-1.843-4.133-1.843c-2.125,0-3.419,0.447-3.883,1.347
	c-0.267,0.496-0.424,0.938-0.474,1.318c-0.05,0.381-0.075,0.955-0.075,1.717V329.096z"/>
<path fill="#40220F" d="M73.793,328.944c0.697,0.996,1.924,2.025,3.684,3.088c0.863,0.564,1.992,1.037,3.387,1.418
	c1.394,0.383,2.87,0.573,4.431,0.573c3.054,0,5.925-0.878,8.614-2.638c1.394-0.896,2.522-2.166,3.385-3.808
	c0.864-1.645,1.294-3.545,1.294-5.703c0-2.157-0.422-3.974-1.269-5.454c-0.846-1.476-1.9-2.512-3.162-3.112
	c-1.262-0.594-2.639-1.099-4.132-1.516c-1.494-0.414-2.872-0.723-4.133-0.921c-1.261-0.199-2.315-0.58-3.162-1.146
	c-0.847-0.565-1.27-1.302-1.27-2.216c0-0.913,0.356-1.627,1.071-2.141c0.713-0.514,1.61-0.774,2.688-0.774
	c1.078,0,1.967,0.218,2.664,0.648c0.232,0.167,0.489,0.383,0.772,0.647c0.281,0.268,0.473,0.434,0.572,0.499
	c1.029,0.663,1.892,0.996,2.589,0.996c1.194,0,2.356-0.83,3.485-2.491c0.797-1.161,1.195-2.072,1.195-2.737
	c0-0.664-0.515-1.478-1.544-2.438l-1.245-0.946c-0.63-0.532-1.767-1.055-3.41-1.57c-1.643-0.513-3.461-0.77-5.452-0.77
	c-3.751,0-6.714,1.087-8.888,3.261c-2.174,2.172-3.261,4.724-3.261,7.643c0,2.125,0.423,3.943,1.269,5.45
	c0.847,1.512,1.9,2.617,3.163,3.313c1.26,0.695,2.621,1.302,4.082,1.815c1.461,0.516,2.821,0.889,4.083,1.12
	c1.261,0.234,2.315,0.607,3.162,1.12c0.847,0.516,1.27,1.156,1.27,1.918c0,2.524-1.542,3.785-4.63,3.785
	c-0.73,0-1.527-0.257-2.39-0.772c-0.864-0.514-1.527-1.054-1.992-1.617c-1.659-1.66-2.955-2.491-3.883-2.491
	c-0.93,0-1.809,0.397-2.64,1.195c-1.428,1.396-2.141,2.514-2.141,3.36s0.431,1.802,1.296,2.863L73.793,328.944z"/>
<path fill="#40220F" d="M125.169,301.113v15.235c0,2.358-0.597,4.432-1.792,6.225c-1.194,1.791-3.004,2.688-5.427,2.688
	c-1.361,0-2.54-0.281-3.534-0.847c-0.997-0.563-1.743-1.311-2.242-2.24c-0.995-1.824-1.493-3.752-1.493-5.775v-14.938
	c0-1.327-0.199-2.373-0.598-3.137c-0.232-0.497-0.665-0.848-1.294-1.046c-0.631-0.199-1.478-0.299-2.54-0.299
	c-1.063,0-1.91,0.1-2.541,0.299c-0.63,0.198-1.078,0.549-1.343,1.046c-0.266,0.499-0.424,0.938-0.474,1.32
	c-0.05,0.381-0.074,0.97-0.074,1.767v14.987c0,4.448,1.345,8.432,4.032,11.947c1.295,1.728,2.98,3.123,5.055,4.184
	c2.075,1.063,4.381,1.594,6.92,1.594c2.541,0,4.855-0.521,6.947-1.567c2.091-1.046,3.799-2.414,5.127-4.108
	c2.721-3.586,4.083-7.568,4.083-11.951v-15.035c0-1.162-0.099-2.023-0.299-2.589c-0.133-0.464-0.349-0.812-0.647-1.045
	c-0.299-0.232-0.729-0.431-1.294-0.599c-0.565-0.166-1.32-0.249-2.266-0.249s-1.735,0.1-2.365,0.299
	c-0.631,0.198-1.112,0.565-1.443,1.098C125.335,298.903,125.169,299.818,125.169,301.113z"/>
<path fill="#40220F" d="M172.885,297.079c-2.108,0-3.444,0.447-4.009,1.344c-1.891,2.392-5.659,7.32-11.301,14.789l-11.303-14.836
	l-0.299-0.301c-0.199-0.231-0.622-0.455-1.269-0.673c-0.647-0.216-1.42-0.323-2.315-0.323c-2.092,0-3.386,0.433-3.884,1.297
	c-0.266,0.496-0.423,0.938-0.473,1.318c-0.05,0.381-0.075,0.955-0.075,1.717v27.635c0,0.795,0.025,1.394,0.075,1.791
	c0.049,0.399,0.207,0.83,0.473,1.294c0.499,0.897,1.76,1.345,3.785,1.345c2.091,0,3.386-0.447,3.883-1.345
	c0.266-0.464,0.423-0.886,0.473-1.269c0.051-0.381,0.075-0.953,0.075-1.717v-16.78c0.166,0.198,1.228,1.652,3.186,4.356
	c1.958,2.706,3.269,4.473,3.934,5.303l0.399,0.549c0.266,0.331,0.704,0.673,1.319,1.021c0.614,0.348,1.295,0.52,2.041,0.52
	c0.747,0,1.443-0.188,2.091-0.569c0.648-0.381,1.054-0.681,1.22-0.896c0.166-0.217,0.465-0.604,0.896-1.17
	c0.431-0.565,1.444-1.967,3.037-4.209c1.594-2.238,2.806-3.875,3.635-4.903v16.681c0,1.162,0.083,2.025,0.249,2.589
	c0.166,0.433,0.399,0.764,0.697,0.993c0.299,0.234,0.73,0.436,1.295,0.599c0.564,0.168,1.327,0.249,2.29,0.249
	s1.759-0.098,2.39-0.299c1.261-0.397,1.892-1.741,1.892-4.031v-27.635c0-0.763-0.025-1.342-0.075-1.741
	c-0.05-0.4-0.208-0.848-0.473-1.347C176.279,297.526,174.993,297.079,172.885,297.079z"/>
<path fill="#40220F" d="M181.265,329.096c0,1.161,0.1,2.009,0.299,2.539c0.398,1.261,1.759,1.893,4.082,1.893
	c2.124,0,3.418-0.45,3.883-1.347c0.268-0.497,0.426-0.928,0.475-1.292c0.049-0.366,0.074-0.948,0.074-1.743v-27.685
	c0-1.162-0.084-2.023-0.25-2.589c-0.43-1.228-1.809-1.843-4.132-1.843c-2.125,0-3.418,0.447-3.883,1.347
	c-0.267,0.496-0.424,0.938-0.474,1.318s-0.074,0.955-0.074,1.717V329.096z"/>
<path fill="#40220F" d="M227.018,318.391h-6.623l3.285-6.821L227.018,318.391z M223.73,297.029c-0.828,0-1.617,0.232-2.365,0.696
	c-0.748,0.466-1.303,1.081-1.668,1.845l-13.443,27.834c-0.564,1.126-0.846,1.976-0.846,2.536c0,1.195,0.961,2.257,2.887,3.187
	c1.129,0.565,2.018,0.848,2.666,0.848c0.646,0,1.176-0.158,1.592-0.473s0.715-0.623,0.896-0.921
	c0.182-0.301,0.441-0.781,0.771-1.445l2.588-5.378h13.793l2.59,5.378c0.33,0.664,0.588,1.161,0.77,1.492
	c0.184,0.336,0.482,0.648,0.898,0.948c0.414,0.299,0.945,0.447,1.592,0.447s1.535-0.281,2.666-0.847
	c1.924-0.961,2.887-2.041,2.887-3.236c0-0.561-0.285-1.41-0.848-2.536l-13.443-27.784
	C226.85,297.894,225.523,297.029,223.73,297.029z"/>
<path fill="#40220F" d="M262.359,313.309c4.049-3.882,7.037-6.935,8.963-9.158c0.994-1.163,1.492-2.166,1.492-3.013
	s-0.664-1.841-1.99-2.988c-1.328-1.146-2.424-1.716-3.285-1.716c-0.865,0-1.877,0.681-3.041,2.039
	c-2.787,3.253-6.438,7.419-10.953,12.499v-9.511c0-1.162-0.082-2.023-0.248-2.589c-0.432-1.228-1.809-1.843-4.133-1.843
	c-2.125,0-3.42,0.447-3.883,1.347c-0.268,0.496-0.424,0.938-0.473,1.318c-0.051,0.381-0.074,0.955-0.074,1.717v27.685
	c0,1.161,0.1,2.009,0.299,2.539c0.396,1.261,1.758,1.893,4.08,1.893c2.125,0,3.42-0.45,3.885-1.347
	c0.266-0.497,0.422-0.928,0.473-1.292c0.049-0.366,0.074-0.948,0.074-1.743v-9.709l10.953,12.496
	c1.197,1.396,2.217,2.091,3.064,2.091s1.934-0.573,3.262-1.718c1.326-1.144,1.99-2.14,1.99-2.986s-0.547-1.885-1.643-3.112
	c-2.123-2.456-5.727-6.123-10.805-11.003L262.359,313.309z"/>
<path fill="#40220F" d="M276.541,329.096c0,1.161,0.102,2.009,0.301,2.539c0.396,1.261,1.758,1.893,4.084,1.893
	c2.121,0,3.418-0.45,3.883-1.347c0.264-0.497,0.422-0.928,0.471-1.292c0.051-0.366,0.074-0.948,0.074-1.743v-27.685
	c0-1.162-0.082-2.023-0.248-2.589c-0.43-1.228-1.809-1.843-4.131-1.843c-2.125,0-3.42,0.447-3.885,1.347
	c-0.266,0.496-0.422,0.938-0.473,1.318c-0.049,0.381-0.076,0.955-0.076,1.717V329.096z"/>
<path fill="#40220F" d="M298.148,305.843h6.273c1.027,0,2.023,0.372,2.986,1.12c0.963,0.747,1.443,1.851,1.443,3.311
	c0,1.462-0.48,2.558-1.443,3.286c-0.963,0.733-1.924,1.096-2.887,1.096h-6.373V305.843z M313.881,319.535
	c2.492-2.422,3.734-5.51,3.734-9.262c0-2.157-0.432-4.114-1.293-5.874c-0.863-1.761-1.959-3.154-3.287-4.183
	c-2.756-2.125-5.594-3.188-8.514-3.188h-10.754c-2.127,0-3.418,0.447-3.885,1.347c-0.266,0.496-0.422,0.938-0.473,1.318
	c-0.049,0.381-0.074,0.955-0.074,1.717v27.635c0,1.162,0.1,2.025,0.297,2.589c0.398,1.228,1.762,1.841,4.082,1.841
	c2.125,0,3.422-0.447,3.885-1.345c0.268-0.496,0.424-0.938,0.475-1.316c0.047-0.383,0.074-0.957,0.074-1.719v-5.626h6.273
	l1.541-0.102c2.26,5.378,3.555,8.384,3.885,9.012c0.201,0.333,0.508,0.658,0.922,0.971c0.414,0.317,0.947,0.475,1.594,0.475
	s1.5-0.232,2.564-0.698c2.059-0.861,3.088-1.923,3.088-3.187c0-0.53-0.25-1.394-0.748-2.588
	C315.74,323.9,314.611,321.294,313.881,319.535z"/>
<path fill="#40220F" d="M341.111,318.391h-6.625l3.287-6.821L341.111,318.391z M337.822,297.029c-0.828,0-1.615,0.232-2.365,0.696
	c-0.746,0.466-1.301,1.081-1.666,1.845l-13.443,27.834c-0.564,1.126-0.848,1.976-0.848,2.536c0,1.195,0.963,2.257,2.889,3.187
	c1.127,0.565,2.018,0.848,2.664,0.848c0.648,0,1.178-0.158,1.594-0.473c0.414-0.314,0.713-0.623,0.895-0.921
	c0.184-0.301,0.439-0.781,0.773-1.445l2.588-5.378h13.793l2.59,5.378c0.332,0.664,0.588,1.161,0.771,1.492
	c0.182,0.336,0.482,0.648,0.898,0.948c0.412,0.299,0.943,0.447,1.59,0.447c0.648,0,1.537-0.281,2.664-0.847
	c1.926-0.961,2.889-2.041,2.889-3.236c0-0.561-0.283-1.41-0.846-2.536l-13.445-27.784
	C340.945,297.894,339.617,297.029,337.822,297.029z"/>
<path fill="#40220F" d="M137.675,354.039c1.414,0,2.548,0.339,3.402,1.015c0.853,0.675,1.28,1.855,1.28,3.543
	s-0.427,2.865-1.28,3.543c-0.854,0.675-1.988,1.014-3.402,1.014h-6.182v-9.114H137.675z M143.729,352.821
	c-1.373-1.187-3.205-1.778-5.493-1.778h-6.743h-0.936h-0.624h-1.811v2.996v15.793v3.06h3.371v-3.06v-3.682h6.743
	c2.288,0,4.12-0.599,5.493-1.796c1.374-1.196,2.061-3.116,2.061-5.758C145.79,355.934,145.103,354.008,143.729,352.821z"/>
<path fill="#40220F" d="M151.812,357.971c-1.124,0.667-1.994,1.607-2.607,2.824c-0.614,1.22-0.92,2.65-0.92,4.293
	c0,1.644,0.307,3.075,0.92,4.292c0.613,1.218,1.483,2.158,2.607,2.824c1.124,0.667,2.444,1.001,3.963,1.001s2.841-0.33,3.965-0.984
	c1.124-0.656,1.992-1.592,2.605-2.81c0.615-1.218,0.922-2.656,0.922-4.323c0-1.643-0.307-3.073-0.922-4.293
	c-0.613-1.217-1.482-2.157-2.605-2.824c-1.124-0.664-2.446-0.998-3.965-0.998S152.937,357.307,151.812,357.971z M158.991,361.046
	c0.77,0.969,1.155,2.314,1.155,4.042c0,1.708-0.386,3.04-1.155,3.996c-0.77,0.959-1.841,1.436-3.215,1.436
	c-1.394,0-2.471-0.477-3.23-1.436c-0.76-0.956-1.14-2.288-1.14-3.996c0-1.728,0.38-3.073,1.14-4.042
	c0.759-0.967,1.836-1.451,3.23-1.451C157.15,359.595,158.222,360.079,158.991,361.046z"/>
<polygon fill="#40220F" points="176.626,357.285 173.629,357.285 169.509,357.285 168.323,357.285 168.135,357.285 166.451,357.285 
	166.451,359.969 166.451,370.145 166.451,372.892 169.509,372.892 169.509,370.145 169.509,359.969 174.254,359.969 
	176.626,359.969 176.689,359.969 176.689,357.285 "/>
<path fill="#40220F" d="M179.683,357.285h-2.435v2.684h2.435v9.115c0,0.706,0.172,1.346,0.516,1.92
	c0.343,0.573,0.801,1.031,1.374,1.372c0.571,0.344,1.212,0.516,1.919,0.516h2.997v-2.747h-1.936c-0.458,0-0.874-0.166-1.248-0.497
	c-0.375-0.334-0.562-0.731-0.562-1.188v-8.49h3.745v-2.684h-3.745v-4.682h-3.061V357.285z"/>
<path fill="#40220F" d="M191.248,349.997c-0.574,0.344-1.029,0.801-1.373,1.373c-0.346,0.573-0.516,1.213-0.516,1.919v3.996h-2.435
	v2.684h2.435v10.176v2.747h3.059h0.062v-2.747h-0.062v-10.176h4.059v-2.684h-4.059v-3.371c0-0.479,0.188-0.9,0.562-1.265
	s0.791-0.547,1.248-0.547h2.248v-2.621h-3.307C192.461,349.481,191.82,349.655,191.248,349.997z"/>
<path fill="#40220F" d="M201.562,357.971c-1.125,0.667-1.99,1.607-2.605,2.824c-0.615,1.22-0.922,2.65-0.922,4.293
	c0,1.644,0.307,3.075,0.922,4.292c0.615,1.218,1.48,2.158,2.605,2.824c1.125,0.667,2.447,1.001,3.967,1.001
	c1.518,0,2.838-0.33,3.961-0.984c1.125-0.656,1.994-1.592,2.607-2.81c0.611-1.218,0.92-2.656,0.92-4.323
	c0-1.643-0.309-3.073-0.92-4.293c-0.613-1.217-1.482-2.157-2.607-2.824c-1.123-0.664-2.443-0.998-3.961-0.998
	C204.01,356.973,202.688,357.307,201.562,357.971z M208.742,361.046c0.771,0.969,1.154,2.314,1.154,4.042
	c0,1.708-0.383,3.04-1.154,3.996c-0.77,0.959-1.842,1.436-3.213,1.436c-1.396,0-2.475-0.477-3.232-1.436
	c-0.76-0.956-1.139-2.288-1.139-3.996c0-1.728,0.379-3.073,1.139-4.042c0.758-0.967,1.836-1.451,3.232-1.451
	C206.9,359.595,207.973,360.079,208.742,361.046z"/>
<polygon fill="#40220F" points="216.201,349.481 216.201,352.103 216.201,370.145 216.201,372.892 219.26,372.892 219.26,370.145 
	219.26,349.481 217.887,349.481 "/>
<path fill="#40220F" d="M222.941,357.285v2.684v10.176v2.747h3.121v-2.747v-12.859h-1.371H222.941z M223.051,353.086
	c0.406,0.429,0.891,0.641,1.453,0.641c0.561,0,1.047-0.212,1.449-0.641c0.406-0.424,0.611-0.921,0.611-1.482
	c0-0.561-0.205-1.024-0.611-1.39c-0.402-0.362-0.889-0.544-1.449-0.544c-0.562,0-1.047,0.182-1.453,0.544
	c-0.404,0.365-0.609,0.829-0.609,1.39C222.441,352.165,222.646,352.662,223.051,353.086z"/>
<path fill="#40220F" d="M232.648,357.971c-1.123,0.667-1.992,1.607-2.605,2.824c-0.613,1.22-0.922,2.65-0.922,4.293
	c0,1.644,0.309,3.075,0.922,4.292c0.613,1.218,1.482,2.158,2.605,2.824c1.123,0.667,2.445,1.001,3.965,1.001s2.842-0.33,3.965-0.984
	c1.123-0.656,1.992-1.592,2.605-2.81s0.922-2.656,0.922-4.323c0-1.643-0.309-3.073-0.922-4.293
	c-0.613-1.217-1.482-2.157-2.605-2.824c-1.123-0.664-2.445-0.998-3.965-0.998S233.771,357.307,232.648,357.971z M239.828,361.046
	c0.771,0.969,1.158,2.314,1.158,4.042c0,1.708-0.387,3.04-1.158,3.996c-0.77,0.959-1.84,1.436-3.215,1.436
	c-1.396,0-2.471-0.477-3.23-1.436c-0.758-0.956-1.139-2.288-1.139-3.996c0-1.728,0.381-3.073,1.139-4.042
	c0.76-0.967,1.834-1.451,3.23-1.451C237.988,359.595,239.059,360.079,239.828,361.046z"/>
<path fill="#40220F" d="M340.836,119.98l-0.014,2.899c0,0.67-0.592,1.314-1.289,1.29c-0.693-0.026-1.289-0.568-1.289-1.29
	l0.025-5.696c-0.707-0.025-1.416-0.052-2.127-0.064c-0.887-0.025-1.775-0.039-2.666-0.039c-0.67,0-1.314-0.593-1.291-1.289
	c0.027-0.695,0.568-1.289,1.291-1.289c1.598,0,3.197,0.052,4.809,0.104l0.012-2.102l0.012-2.887c0-0.67,0.594-1.314,1.289-1.289
	c0.697,0.027,1.289,0.567,1.289,1.289c-0.014,1.702-0.014,3.39-0.023,5.091c0.668,0.025,1.352,0.051,2.021,0.064
	c0.889,0.025,1.777,0.04,2.654,0.04c0.67,0,1.316,0.592,1.289,1.288c-0.027,0.696-0.566,1.289-1.289,1.289
	c-1.559,0-3.133-0.052-4.691-0.103C340.848,118.176,340.836,119.077,340.836,119.98 M316.076,169.199c0.902,0,1.793,0,2.695,0.025
	c0-0.915,0.014-1.844,0.014-2.758c0-0.49,0.424-0.966,0.939-0.94c0.504,0.025,0.941,0.411,0.941,0.94c0,0.94-0.014,1.869-0.014,2.81
	c0.877,0.024,1.74,0.064,2.617,0.103c0.488,0.026,0.967,0.412,0.939,0.941c-0.025,0.49-0.412,0.966-0.939,0.94
	c-0.877-0.051-1.752-0.078-2.629-0.103c0,1.071-0.012,2.14-0.012,3.222c0,0.489-0.428,0.966-0.941,0.941
	c-0.504-0.026-0.941-0.413-0.941-0.941c0-1.083,0.012-2.179,0.012-3.261c-0.889-0.012-1.791-0.025-2.682-0.025
	c-0.488,0-0.965-0.438-0.939-0.94C315.162,169.624,315.549,169.199,316.076,169.199 M290.625,124.852
	c-1.16-0.066-2.332-0.104-3.492-0.143c0,0.684,0,1.367-0.014,2.062c0,0.723-0.014,1.457-0.014,2.178
	c0,0.502-0.436,0.992-0.967,0.966c-0.516-0.026-0.967-0.424-0.967-0.966c0-1.431,0.012-2.861,0.012-4.292
	c-0.525-0.013-1.041-0.013-1.572-0.026c-0.654,0-1.328-0.013-1.982,0c-0.502,0-0.992-0.451-0.969-0.966
	c0.027-0.529,0.426-0.967,0.969-0.967c1.186,0,2.383,0,3.57,0.026c0-0.49,0-0.993,0.012-1.483c0-0.721,0.014-1.456,0.014-2.178
	c0-0.502,0.438-0.993,0.967-0.966c0.516,0.024,0.965,0.425,0.965,0.966c0,1.237-0.014,2.475-0.014,3.711
	c0.506,0.013,0.992,0.026,1.496,0.052c0.658,0.025,1.328,0.051,1.986,0.09c0.502,0.025,0.99,0.425,0.965,0.967
	C291.564,124.375,291.164,124.878,290.625,124.852 M328.746,149.828c1.715,0,3.439,0.014,5.156,0.039c0-0.644,0-1.276,0.014-1.92
	c0-0.928,0.01-1.855,0.01-2.771c0-0.502,0.441-0.992,0.969-0.966c0.516,0.026,0.967,0.425,0.967,0.966
	c-0.012,1.585-0.012,3.158-0.027,4.743c0.773,0.025,1.547,0.052,2.309,0.077c0.889,0.039,1.777,0.077,2.654,0.129
	c0.502,0.026,0.992,0.426,0.965,0.967c-0.023,0.502-0.426,0.992-0.965,0.966c-1.664-0.09-3.326-0.154-4.975-0.206
	c0,0.941-0.012,1.882-0.012,2.811c0,0.928-0.014,1.855-0.014,2.77c0,0.502-0.438,0.992-0.967,0.966
	c-0.516-0.026-0.967-0.425-0.967-0.966c0.014-1.881,0.014-3.764,0.025-5.645c-0.824-0.013-1.65-0.026-2.486-0.039
	c-0.891-0.013-1.779-0.013-2.67-0.013c-0.502,0-0.992-0.451-0.967-0.967C327.805,150.266,328.205,149.828,328.746,149.828
	 M277.4,167.807c2.268-0.09,4.537-0.167,6.807-0.206l0.398-0.013c0-1.391,0.014-2.771,0.014-4.162c0-1.405,0.012-2.81,0.012-4.214
	c0-0.413,0.18-0.851,0.479-1.136c0.283-0.283,0.734-0.489,1.131-0.476c0.414,0.013,0.854,0.154,1.137,0.476
	c0.283,0.311,0.475,0.709,0.475,1.136c-0.012,2.487-0.023,4.975-0.037,7.474c0,0.283,0,0.581,0,0.864
	c1.057-0.013,2.127-0.013,3.184-0.013c1.287,0,2.564,0.013,3.852,0.039c0.412,0,0.84,0.179,1.137,0.476
	c0.283,0.284,0.488,0.735,0.475,1.134c-0.012,0.412-0.152,0.851-0.475,1.135c-0.311,0.284-0.709,0.477-1.137,0.477
	c-2.266-0.039-4.533-0.039-6.803-0.026h-0.244c0,1.134-0.014,2.268-0.014,3.415c0,1.406-0.012,2.81-0.012,4.214
	c0,0.413-0.182,0.851-0.479,1.135c-0.283,0.283-0.734,0.49-1.133,0.477c-0.412-0.013-0.854-0.154-1.135-0.477
	c-0.283-0.31-0.477-0.709-0.477-1.135c0.014-2.487,0.023-4.974,0.037-7.475v-0.115c-1.109,0.025-2.229,0.051-3.338,0.077
	c-1.287,0.039-2.564,0.078-3.854,0.142c-0.398,0.013-0.863-0.193-1.133-0.477c-0.283-0.283-0.49-0.735-0.477-1.134
	C275.828,168.515,276.5,167.846,277.4,167.807 M296.129,141.993c0.23,0.256,0.512,0.425,0.822,0.527
	c0.312,0.169,0.646,0.232,0.992,0.22c1.832-0.064,3.674-0.129,5.504-0.181c1.443-0.04,2.887-0.064,4.344-0.091
	c0,0.387,0,0.761,0,1.148c-0.014,3.531-0.025,7.062-0.051,10.581c0,0.696,0.297,1.314,0.76,1.817
	c0.465,0.503,1.158,0.721,1.818,0.76c0.359,0.013,0.682-0.064,0.99-0.219c0.322-0.104,0.594-0.283,0.824-0.528
	c0.465-0.464,0.748-1.16,0.762-1.818c0.012-1.985,0.012-3.969,0.025-5.954c0.012-1.946,0.012-3.892,0.027-5.838
	c0.166,0,0.334,0,0.502,0c3.299-0.013,6.609,0,9.91,0.064c0.695,0.013,1.326-0.297,1.816-0.76c0.502-0.464,0.725-1.161,0.764-1.818
	c0.01-0.36-0.066-0.683-0.223-0.992c-0.102-0.322-0.281-0.593-0.527-0.825c-0.479-0.477-1.16-0.748-1.818-0.76
	c-1.828-0.039-3.674-0.052-5.502-0.064c-1.625-0.012-3.26-0.012-4.883,0c0.012-3.376,0.023-6.766,0.049-10.143
	c0-0.696-0.295-1.314-0.76-1.817c-0.465-0.502-1.158-0.721-1.816-0.76c-0.363-0.013-0.684,0.064-0.994,0.218
	c-0.32,0.104-0.592,0.285-0.824,0.53c-0.463,0.464-0.748,1.159-0.76,1.816c-0.012,1.984-0.012,3.97-0.027,5.955
	c0,1.417-0.012,2.836-0.012,4.253c-3.283,0.051-6.574,0.142-9.871,0.271c-0.707,0.025-1.303,0.283-1.818,0.76
	c-0.504,0.464-0.721,1.16-0.76,1.817c-0.012,0.361,0.064,0.683,0.219,0.992C295.703,141.477,295.881,141.748,296.129,141.993"/>
<path fill="#7F4F21" d="M180.371,41.023L180.371,41.023v0.331v-0.003l0,0V41.023 M228.592,41.021L228.592,41.021
	c0,1.998-0.242,3.938-0.701,5.794l0,0C228.35,44.96,228.592,43.02,228.592,41.021L228.592,41.021L228.592,41.021L228.592,41.021
	L228.592,41.021"/>
<path fill="#476B96" d="M204.361,17.771c-0.146,0-0.295,0-0.441,0.003c-12.67,0.301-22.859,10.892-22.691,23.565
	c0.026,1.889,0.277,3.724,0.728,5.477h0.888c-0.47-1.752-0.729-3.591-0.756-5.487v-0.003v-0.302c0-6.03,2.436-11.556,6.389-15.613
	c3.953-4.055,9.414-6.634,15.458-6.778c0.184-0.004,0.365-0.006,0.545-0.006c0.041,0,0.086,0,0.131,0
	c0.244,0.001,0.49,0.008,0.74,0.017c0.004,0,0.008,0,0.012,0c0.062-0.281,0.133-0.565,0.197-0.844
	C205.164,17.78,204.766,17.771,204.361,17.771"/>
<path fill="#F2B42C" d="M166.819,66.148v25.708h5.694V73.562c-2.373-1.518-3.739-3.934-5.279-6.674
	C167.098,66.644,166.959,66.397,166.819,66.148"/>
<path fill="#476B96" d="M182.844,46.816h-0.888c1.148,4.468,3.591,8.417,6.901,11.421c3.711,3.369,5.912,8.084,5.912,13.096v4.443
	h0.859v-4.443c0-5.268-2.311-10.211-6.191-13.733C186.299,54.752,183.972,51.03,182.844,46.816"/>
<path fill="#7F4F21" d="M195.773,54.188l4.262,21.589h1.449l-4.254-21.564l-0.232,0.262c-0.141,0.16-0.34,0.24-0.537,0.24
	c-0.166,0-0.336-0.058-0.471-0.177C195.879,54.441,195.809,54.318,195.773,54.188 M195.475,48.272c-0.045,0-0.092,0.004-0.141,0.014
	c-0.387,0.076-0.637,0.451-0.561,0.836l0.982,4.972c-0.027-0.197,0.029-0.403,0.172-0.563l0.955-1.083l-0.711-3.602
	C196.104,48.507,195.807,48.272,195.475,48.272"/>
<path fill="#7F4F21" d="M212.004,54.169l-4.266,21.607h1.453l4.258-21.578c-0.043,0.149-0.135,0.286-0.271,0.384
	c-0.125,0.09-0.27,0.132-0.414,0.132c-0.221,0-0.441-0.102-0.58-0.296L212.004,54.169 M213.75,48.272
	c-0.332,0-0.631,0.235-0.695,0.574l-0.674,3.406l0.961,1.335c0.107,0.148,0.148,0.325,0.131,0.495l0.977-4.96
	c0.078-0.386-0.174-0.76-0.559-0.836C213.842,48.276,213.795,48.272,213.75,48.272"/>
<path fill="#7F4F21" d="M195.629,80.629l-0.023-3.136h17.697l-0.066,7.864h-17.568l-0.025-2.975h-0.229
	c-0.482,0-0.877-0.393-0.877-0.876c0-0.483,0.395-0.876,0.877-0.876H195.629 M214.166,75.776h-0.83h-4.145h-1.453h-0.176h-6.078
	h-1.449h-4.406h-0.859h-0.031c-0.23,0-0.447,0.092-0.609,0.251c-0.107,0.111-0.184,0.246-0.221,0.393l0,0
	c-0.02,0.071-0.029,0.146-0.029,0.221l0.078,9.581c0,0.183,0.059,0.351,0.158,0.489c-0.023-0.092-0.047-0.185-0.066-0.279
	l0.834-0.179l-0.834,0.179c-0.059-0.252,0.006-0.515,0.172-0.718c0.16-0.204,0.406-0.319,0.662-0.319h19.135
	c0.264,0,0.506,0.115,0.67,0.319c0.162,0.204,0.223,0.466,0.172,0.718c-0.02,0.092-0.041,0.183-0.064,0.273
	c0.096-0.137,0.15-0.303,0.152-0.483l0,0l0.033-4.148l0.043-5.214l0.002-0.218c0.004-0.229-0.088-0.45-0.25-0.614
	C214.615,75.868,214.395,75.776,214.166,75.776"/>
<path fill="#7F4F21" d="M196.092,87.112h16.723c-0.715,1.415-2.182,2.352-3.83,2.352h-9.066
	C198.271,89.464,196.807,88.527,196.092,87.112 M214.018,85.396h-19.135c-0.256,0-0.502,0.115-0.662,0.319
	c-0.166,0.204-0.23,0.466-0.172,0.718l0.834-0.179l-0.834,0.179c0.02,0.094,0.043,0.187,0.066,0.279
	c0.691,2.622,3.066,4.47,5.803,4.47h9.066c2.742,0,5.119-1.852,5.811-4.476c0.023-0.09,0.045-0.182,0.064-0.273
	c0.051-0.252-0.01-0.515-0.172-0.718C214.523,85.511,214.281,85.396,214.018,85.396"/>
<path fill="#7F4F21" d="M200.898,48.271c-0.207,0-0.408,0.087-0.543,0.243l-3.473,3.935l-0.955,1.083
	c-0.143,0.16-0.199,0.367-0.172,0.563c0.002,0.031,0.008,0.062,0.018,0.093c0.035,0.131,0.105,0.253,0.217,0.349
	c0.135,0.119,0.305,0.177,0.471,0.177c0.197,0,0.396-0.08,0.537-0.24l0.232-0.262l3.588-4.069l0.705,1.031l2.484,3.629
	c0.125,0.186,0.328,0.298,0.555,0.309c0.008,0,0.02,0,0.033,0c0.209,0,0.406-0.09,0.543-0.252l3.975-4.717l2.891,4.026l0.18,0.249
	c0.139,0.195,0.359,0.296,0.58,0.296c0.145,0,0.289-0.042,0.414-0.132c0.137-0.098,0.229-0.234,0.271-0.384
	c0.01-0.038,0.018-0.076,0.023-0.115c0.018-0.17-0.023-0.347-0.131-0.495l-0.961-1.335l-2.645-3.683
	c-0.129-0.179-0.334-0.288-0.555-0.299c-0.006,0-0.012,0-0.021,0c-0.211,0-0.414,0.095-0.549,0.256l-3.959,4.7l-3.176-4.644
	c-0.002-0.003-0.002-0.005-0.006-0.008c-0.123-0.176-0.322-0.29-0.537-0.304C200.922,48.271,200.91,48.271,200.898,48.271"/>
<path fill="#7F4F21" d="M207.33,80.629h-11.701h-0.215c-0.482,0-0.877,0.393-0.877,0.876c0,0.484,0.395,0.876,0.877,0.876h0.229
	h11.688c0.482,0,0.873-0.393,0.873-0.876C208.203,81.022,207.812,80.629,207.33,80.629"/>
</svg>
